<svg xmlns="http://www.w3.org/2000/svg" width="13.701" height="13.701" viewBox="0 0 13.701 13.701">
    <path d="M5.249 17.02a1.118 1.118 0 0 0 1.432 1.432l2.055-.5a6.661 6.661 0 0 0 3.114.747A6.807 6.807 0 1 0 5.747 15l-.5 2.024zm1.775-1.962a.622.622 0 0 0-.062-.467A5.607 5.607 0 1 1 9.11 16.74a.6.6 0 0 0-.467-.062l-2.18.529.561-2.149zm7.629-3.83a.623.623 0 0 0 0-1.246H9.048a.623.623 0 1 0 0 1.246zm0 2.491a.623.623 0 0 0 0-1.246h-3.736a.623.623 0 0 0 0 1.246z" transform="translate(-5 -5)" style="fill:#6d6d6e"/>
</svg>
