<svg xmlns="http://www.w3.org/2000/svg" width="13.214" height="13.214" viewBox="0 0 13.214 13.214">
    <defs>
        <style>
            .cls-1{fill:#3ba27f}
        </style>
    </defs>
    <g id="Group_11017" data-name="Group 11017" transform="translate(6450 9825)">
        <path id="Path_4407" data-name="Path 4407" class="cls-1" d="M9.7 25.311a1.851 1.851 0 1 1-1.849-1.851A1.851 1.851 0 0 1 9.7 25.311z" transform="translate(-6456 -9838.949)"/>
        <path id="Path_4408" data-name="Path 4408" class="cls-1" d="M6 6.66v2.4a10.811 10.811 0 0 1 10.811 10.814h2.4A13.218 13.218 0 0 0 6 6.66zm0 4.807v2.4a6.009 6.009 0 0 1 6 6h2.4a8.4 8.4 0 0 0-8.4-8.4z" transform="translate(-6456 -9831.66)"/>
    </g>
</svg>
