<svg xmlns="http://www.w3.org/2000/svg" width="20.378" height="16.302" viewBox="0 0 20.378 16.302">
    <path data-name="Icon awesome-photo-video" d="M19.359 0H5.094a1.019 1.019 0 0 0-1.018 1.019v3.057H9.17V2.038h6.113v10.189h4.076a1.019 1.019 0 0 0 1.019-1.019V1.019A1.019 1.019 0 0 0 19.359 0zM7.387 3.28a.287.287 0 0 1-.287.287h-.955a.287.287 0 0 1-.287-.287v-.956a.287.287 0 0 1 .287-.287H7.1a.287.287 0 0 1 .287.287zM18.595 9.9a.287.287 0 0 1-.287.287h-.955a.287.287 0 0 1-.287-.287v-.953a.287.287 0 0 1 .287-.287h.955a.287.287 0 0 1 .287.287zm0-3.311a.287.287 0 0 1-.287.287h-.955a.287.287 0 0 1-.287-.287v-.953a.287.287 0 0 1 .287-.287h.955a.287.287 0 0 1 .287.287zm0-3.311a.287.287 0 0 1-.287.287h-.955a.287.287 0 0 1-.287-.287v-.954a.287.287 0 0 1 .287-.287h.955a.287.287 0 0 1 .287.287zm-5.349 1.816H1.019A1.019 1.019 0 0 0 0 6.113v9.17A1.019 1.019 0 0 0 1.019 16.3h12.227a1.019 1.019 0 0 0 1.019-1.019V6.113a1.019 1.019 0 0 0-1.019-1.019zM3.057 7.132a1.019 1.019 0 1 1-1.019 1.019 1.019 1.019 0 0 1 1.019-1.019zm9.17 7.132H2.038v-1.018l2.038-2.038 1.019 1.019L9.17 8.151l3.057 3.057z" style="fill:#3ba27f"/>
</svg>
