<svg data-name="Group 15778" xmlns="http://www.w3.org/2000/svg" width="20.87" height="20.87" viewBox="0 0 20.87 20.87">
    <circle data-name="Ellipse 68" cx="10.435" cy="10.435" r="10.435" style="fill:#fff"/>
    <path data-name="Rectangle 252" transform="translate(5.619 5.619)" style="fill:none" d="M0 0h9.632v9.632H0z"/>
    <path data-name="Path 110" d="M5.19 6.02a1.257 1.257 0 0 0 1.3-1.2 1.257 1.257 0 0 0-1.3-1.2 1.257 1.257 0 0 0-1.3 1.2 1.257 1.257 0 0 0 1.3 1.2zm0-3.612a2.514 2.514 0 0 1 2.6 2.408 2.514 2.514 0 0 1-2.6 2.408A2.514 2.514 0 0 1 2.6 4.816a2.514 2.514 0 0 1 2.59-2.408zm3.893 6.621H1.3a1.332 1.332 0 0 1-.908-.361A1.148 1.148 0 0 1 0 7.825V2.408A1.257 1.257 0 0 1 1.3 1.2h1.036l.973-.9a1.117 1.117 0 0 1 .778-.3h2.271a1.079 1.079 0 0 1 .714.3l.973.9h1.038a1.257 1.257 0 0 1 1.3 1.2v5.425a1.257 1.257 0 0 1-1.3 1.204z" transform="translate(5.619 6.167)" style="fill:#525c6b;fill-rule:evenodd"/>
</svg>
