<svg data-name="Group 10878" xmlns="http://www.w3.org/2000/svg" width="11.114" height="7.831" viewBox="0 0 11.114 7.831">
    <g data-name="Path 4061" style="fill:#6d6d6e">
        <path d="M10.862 7.78H.252a.203.203 0 0 1-.202-.202V.253C.05.14.14.05.253.05h10.609c.111 0 .202.09.202.203v7.325c0 .112-.09.202-.202.202z" style="stroke:none"/>
        <path d="M.253.1A.153.153 0 0 0 .1.253v7.325c0 .084.068.152.153.152h10.609a.153.153 0 0 0 .152-.152V.253A.153.153 0 0 0 10.862.1H.252m0-.1h10.61c.14 0 .252.113.252.253v7.325c0 .14-.113.252-.252.252H.252A.253.253 0 0 1 0 7.578V.253C0 .113.113 0 .253 0z" style="fill:#a0a6a8;stroke:none"/>
    </g>
    <g data-name="Group 6065">
        <path data-name="Line 620" d="M8.73-.531h-9.5A.235.235 0 0 1-1-.765.235.235 0 0 1-.765-1h9.5a.235.235 0 0 1 .235.235.235.235 0 0 1-.24.234z" transform="translate(1.505 1.869)" style="fill:#fff"/>
        <path data-name="Line 621" d="M8.73-.531h-9.5A.235.235 0 0 1-1-.765.235.235 0 0 1-.765-1h9.5a.235.235 0 0 1 .235.235.235.235 0 0 1-.24.234z" transform="translate(1.505 3.531)" style="fill:#fff"/>
        <path data-name="Line 622" d="M5.36-.531H-.765A.235.235 0 0 1-1-.765.235.235 0 0 1-.765-1H5.36a.235.235 0 0 1 .24.235.235.235 0 0 1-.24.234z" transform="translate(1.505 5.088)" style="fill:#fff"/>
        <path data-name="Line 623" d="M5.36-.531H-.765A.235.235 0 0 1-1-.765.235.235 0 0 1-.765-1H5.36a.235.235 0 0 1 .24.235.235.235 0 0 1-.24.234z" transform="translate(1.505 6.75)" style="fill:#fff"/>
        <path data-name="Icon awesome-certificate" d="m2.344 1.308.235-.23a.122.122 0 0 0-.055-.206L2.2.79l.09-.317a.124.124 0 0 0-.147-.152l-.317.09-.082-.32a.123.123 0 0 0-.206-.054l-.23.237-.23-.237a.123.123 0 0 0-.206.054L.791.412.474.321a.124.124 0 0 0-.152.152l.09.317-.32.082a.122.122 0 0 0-.055.206l.235.23-.235.23a.122.122 0 0 0 .054.206l.32.082-.09.317a.124.124 0 0 0 .152.152L.791 2.2l.082.32a.122.122 0 0 0 .206.055l.23-.235.23.235a.122.122 0 0 0 .206-.055l.082-.32.317.09a.124.124 0 0 0 .152-.152L2.2 1.826l.32-.082a.122.122 0 0 0 .054-.206l-.235-.23z" transform="translate(7.619 3.743)" style="fill:none"/>
        <path data-name="Icon awesome-certificate - Outline" d="M.608 2.351a.238.238 0 0 1-.232-.181l-.052-.2-.2.057a.24.24 0 0 1-.065.009.242.242 0 0 1-.192-.1.237.237 0 0 1-.04-.209l.057-.2-.2-.052a.238.238 0 0 1-.173-.17.238.238 0 0 1 .065-.234l.147-.146L-.426.78A.238.238 0 0 1-.492.545a.238.238 0 0 1 .173-.17l.2-.052-.057-.2a.238.238 0 0 1 .04-.21.242.242 0 0 1 .192-.1.239.239 0 0 1 .064.009l.2.057.052-.2A.238.238 0 0 1 .609-.5a.234.234 0 0 1 .171.073l.145.15.145-.15A.234.234 0 0 1 1.242-.5a.238.238 0 0 1 .234.18l.052.2.2-.057a.24.24 0 0 1 .065-.009.242.242 0 0 1 .192.1.237.237 0 0 1 .04.209l-.057.2.2.052a.239.239 0 0 1 .108.4l-.147.15.149.146a.239.239 0 0 1-.108.4l-.2.052.057.2a.238.238 0 0 1-.04.21.242.242 0 0 1-.192.1.239.239 0 0 1-.064-.009l-.2-.057-.052.2a.238.238 0 0 1-.233.181.233.233 0 0 1-.172-.074l-.148-.145-.146.149a.236.236 0 0 1-.172.073zm-.116-.676.108.439h.012l.314-.321.316.323h.006l.112-.437.433.123h.005c.005 0 0 0 0 0l-.123-.432.439-.112-.321-.333.323-.315-.44-.119L1.8.058l-.44.117-.112-.439H1.24L.926.06.611-.265.6-.263.492.175.059.052a.007.007 0 0 0-.005 0l.122.439L-.263.6l.321.325-.322.315.437.112-.123.433z" transform="translate(8.001 4.126)" style="fill:#fff"/>
    </g>
</svg>
