<svg xmlns="http://www.w3.org/2000/svg" xmlns:xlink="http://www.w3.org/1999/xlink" width="60" height="60" viewBox="0 0 60 60">
  <defs>
    <style>
      .cls-1 {
        fill: none;
      }

      .cls-2 {
        clip-path: url(#clip-path);
      }

      .cls-3 {
        fill: #ee4036;
      }

      .cls-4, .cls-6 {
        fill: #fff;
      }

      .cls-4 {
        fill-rule: evenodd;
      }

      .cls-5 {
        fill: #be1e2d;
      }

      .cls-11, .cls-7 {
        fill: #ec1c24;
      }

      .cls-8 {
        fill: #ff9100;
      }

      .cls-9 {
        fill: #b6d800;
      }

      .cls-10 {
        fill: url(#linear-gradient);
      }

      .cls-11 {
        mix-blend-mode: multiply;
        isolation: isolate;
      }
    </style>
    <clipPath id="clip-path">
      <rect id="Rectangle_1547" data-name="Rectangle 1547" class="cls-1" width="60" height="60"/>
    </clipPath>
    <linearGradient id="linear-gradient" x1="0.291" x2="0.841" y2="1" gradientUnits="objectBoundingBox">
      <stop offset="0" stop-color="#fa722a"/>
      <stop offset="1" stop-color="#ff0019"/>
    </linearGradient>
  </defs>
  <g id="Group_11033" data-name="Group 11033" transform="translate(-71 -471)">
    <g id="Group_3439" data-name="Group 3439" transform="translate(71 471)">
      <g id="Group_3438" data-name="Group 3438" class="cls-2" transform="translate(0 0)">
        <path id="Path_2201" data-name="Path 2201" class="cls-3" d="M60,30A30,30,0,1,1,30,0,30,30,0,0,1,60,30" transform="translate(0 0)"/>
        <path id="Path_2202" data-name="Path 2202" class="cls-4" d="M30.46,1.637A28.823,28.823,0,1,0,59.283,30.461,28.823,28.823,0,0,0,30.46,1.637" transform="translate(-0.46 -0.46)"/>
        <path id="Path_2203" data-name="Path 2203" class="cls-5" d="M57.611,31.533A26.078,26.078,0,1,1,31.533,5.455,26.078,26.078,0,0,1,57.611,31.533" transform="translate(-1.534 -1.533)"/>
        <path id="Path_2204" data-name="Path 2204" class="cls-6" d="M31.037,58.385A27.347,27.347,0,1,1,58.384,31.038,27.378,27.378,0,0,1,31.037,58.385m0-52.156A24.809,24.809,0,1,0,55.846,31.038,24.838,24.838,0,0,0,31.037,6.229" transform="translate(-1.037 -1.037)"/>
        <path id="Path_2205" data-name="Path 2205" class="cls-4" d="M32.045,7.284a.191.191,0,1,1-.19.19.19.19,0,0,1,.19-.19m1.582.05h0a.191.191,0,1,1-.2.178.191.191,0,0,1,.2-.178m-6.45.433h0a.191.191,0,1,1-.15.224.191.191,0,0,1,.15-.224M21.059,9.855h0a.191.191,0,1,1-.087.256.191.191,0,0,1,.087-.256m-5.37,3.6h0a.191.191,0,1,1-.017.269.191.191,0,0,1,.017-.269m-4.254,4.867h0a.191.191,0,1,1,.053.265.191.191,0,0,1-.053-.265m-2.85,5.8h0a.191.191,0,1,1,.119.242.191.191,0,0,1-.119-.242M7.334,30.468h0a.191.191,0,1,1,.178.2.19.19,0,0,1-.178-.2m.433,6.45h0a.191.191,0,1,1,.225.15.191.191,0,0,1-.225-.15m2.088,6.118h0a.191.191,0,1,1,.256.086.191.191,0,0,1-.256-.086m3.6,5.369h0a.191.191,0,1,1,.27.017.192.192,0,0,1-.27-.017m4.867,4.254h0a.191.191,0,1,1,.265-.052.19.19,0,0,1-.265.052m5.8,2.85h0a.191.191,0,1,1,.242-.119.19.19,0,0,1-.242.119m6.343,1.252h0a.191.191,0,1,1,.2-.178.192.192,0,0,1-.2.178m6.45-.433h0a.191.191,0,1,1,.15-.225.192.192,0,0,1-.15.225m6.118-2.088h0a.19.19,0,1,1,.087-.255.19.19,0,0,1-.087.255m5.369-3.6h0a.191.191,0,1,1,.018-.27.19.19,0,0,1-.018.27m4.255-4.867h0a.191.191,0,1,1-.053-.265.191.191,0,0,1,.053.265m2.85-5.8h0a.191.191,0,1,1-.119-.242.191.191,0,0,1,.119.242m1.251-6.342h0a.191.191,0,1,1-.178-.2.19.19,0,0,1,.178.2m-.433-6.45h0a.191.191,0,1,1-.224-.15.191.191,0,0,1,.224.15m-2.088-6.118h0a.191.191,0,1,1-.256-.086.191.191,0,0,1,.256.086m-3.6-5.369h0a.191.191,0,1,1-.27-.017.191.191,0,0,1,.27.017m-4.867-4.254h0a.191.191,0,1,1-.265.052.191.191,0,0,1,.265-.052m-5.8-2.85h0a.191.191,0,1,1-.242.12.19.19,0,0,1,.242-.12M30.377,7.34h0a.191.191,0,1,1-.178.2.191.191,0,0,1,.178-.2M24.039,8.615h0a.191.191,0,1,1-.119.242.191.191,0,0,1,.119-.242m-5.792,2.871h0a.191.191,0,1,1-.052.265.192.192,0,0,1,.052-.265M13.4,15.759h0a.191.191,0,1,1,.019.269.191.191,0,0,1-.019-.269M9.814,21.141h0A.191.191,0,1,1,9.9,21.4a.191.191,0,0,1-.088-.255M7.75,27.266h0a.191.191,0,1,1,.15.224.19.19,0,0,1-.15-.224m-.41,6.452h0a.191.191,0,1,1,.2.178.191.191,0,0,1-.2-.178m1.274,6.338h0a.191.191,0,1,1,.242.119.192.192,0,0,1-.242-.119m2.871,5.792h0a.191.191,0,1,1,.265.052.191.191,0,0,1-.265-.052M15.758,50.7h0a.191.191,0,1,1,.27-.018.191.191,0,0,1-.27.018m5.383,3.58h0a.19.19,0,1,1,.255-.087.191.191,0,0,1-.255.087m6.125,2.065h0a.191.191,0,1,1,.224-.15.191.191,0,0,1-.224.15m6.452.41h0a.191.191,0,1,1,.178-.2.191.191,0,0,1-.178.2m6.338-1.274h0a.191.191,0,1,1,.119-.242.191.191,0,0,1-.119.242m5.792-2.872h0a.19.19,0,1,1,.052-.265.191.191,0,0,1-.052.265M50.7,48.337h0a.191.191,0,1,1-.018-.269.191.191,0,0,1,.018.269m3.581-5.382h0a.191.191,0,1,1-.087-.256.191.191,0,0,1,.087.256m2.065-6.126h0a.191.191,0,1,1-.15-.224.19.19,0,0,1,.15.224m.41-6.451h0a.191.191,0,1,1-.2-.178.191.191,0,0,1,.2.178M55.48,24.039h0a.191.191,0,1,1-.242-.119.191.191,0,0,1,.242.119m-2.871-5.792h0a.191.191,0,1,1-.265-.052.19.19,0,0,1,.265.052M48.337,13.4h0a.191.191,0,1,1-.251.287.191.191,0,0,1,.251-.287M42.954,9.815h0A.191.191,0,1,1,42.7,9.9a.191.191,0,0,1,.255-.087M36.829,7.75h0a.191.191,0,1,1-.224.15.191.191,0,0,1,.224-.15M28.752,7.5h0a.191.191,0,1,1-.164.215.191.191,0,0,1,.164-.215m-6.24,1.689h0a.191.191,0,1,1-.1.249.191.191,0,0,1,.1-.249m-5.59,3.247h0a.191.191,0,1,1-.035.267.191.191,0,0,1,.035-.267m-4.56,4.583h0a.191.191,0,1,1,.036.267.191.191,0,0,1-.036-.267M9.144,22.63h0a.191.191,0,1,1,.1.249.191.191,0,0,1-.1-.249M7.487,28.879h0a.191.191,0,1,1,.165.214.191.191,0,0,1-.165-.214M7.5,35.343h0a.191.191,0,1,1,.214.163.192.192,0,0,1-.214-.163m1.689,6.24h0a.191.191,0,1,1,.249.1.191.191,0,0,1-.249-.1m3.246,5.59h0a.191.191,0,1,1,.267.035.191.191,0,0,1-.267-.035m4.583,4.56h0a.191.191,0,1,1,.267-.036.191.191,0,0,1-.267.036M22.63,54.95h0a.191.191,0,1,1,.249-.1.19.19,0,0,1-.249.1m6.248,1.657h0a.191.191,0,1,1,.214-.165.19.19,0,0,1-.214.165m6.465-.016h0a.191.191,0,1,1,.164-.215.191.191,0,0,1-.164.215m6.24-1.69h0a.19.19,0,1,1,.1-.249.189.189,0,0,1-.1.249m5.591-3.246h0a.191.191,0,1,1,.035-.267.19.19,0,0,1-.035.267m4.559-4.583h0A.191.191,0,1,1,51.7,46.8a.192.192,0,0,1,.035.267m3.218-5.607h0a.191.191,0,1,1-.1-.249.19.19,0,0,1,.1.249m1.657-6.248h0A.191.191,0,1,1,56.443,35a.191.191,0,0,1,.165.213m-.017-6.465h0a.191.191,0,1,1-.214-.164.19.19,0,0,1,.214.164M54.9,22.512h0a.191.191,0,1,1-.249-.1.191.191,0,0,1,.249.1m-3.246-5.591h0a.191.191,0,1,1-.267-.035.191.191,0,0,1,.267.035m-4.583-4.559h0a.191.191,0,1,1-.268.036.191.191,0,0,1,.268-.036M41.465,9.145h0a.191.191,0,1,1-.249.1.19.19,0,0,1,.249-.1M35.216,7.487h0A.191.191,0,1,1,35,7.653a.191.191,0,0,1,.214-.165m-9.58.641h0a.191.191,0,1,1-.136.234.19.19,0,0,1,.136-.234M19.663,10.6h0a.191.191,0,1,1-.07.261.191.191,0,0,1,.07-.261m-5.128,3.936h0a.191.191,0,1,1,0,.27.191.191,0,0,1,0-.27M10.6,19.668h0a.191.191,0,1,1,.07.261.191.191,0,0,1-.07-.261M8.127,25.641h0a.191.191,0,1,1,.135.234.191.191,0,0,1-.135-.234M7.284,32.05h0a.191.191,0,1,1,.19.191.191.191,0,0,1-.19-.191m.844,6.409h0a.191.191,0,1,1,.234.135.191.191,0,0,1-.234-.135M10.6,44.432h0a.191.191,0,1,1,.26.07.191.191,0,0,1-.26-.07m3.936,5.128h0a.191.191,0,1,1,.27,0,.191.191,0,0,1-.27,0m5.129,3.934h0a.191.191,0,1,1,.261-.069.19.19,0,0,1-.261.069m5.973,2.474h0a.191.191,0,1,1,.234-.134.191.191,0,0,1-.234.134m6.409.843h0a.191.191,0,1,1,.19-.191.192.192,0,0,1-.19.191m6.409-.845h0a.191.191,0,1,1,.135-.234.19.19,0,0,1-.135.234m5.972-2.475h0a.191.191,0,0,1-.19-.33.191.191,0,1,1,.19.33m5.128-3.936h0a.191.191,0,1,1,0-.27.19.19,0,0,1,0,.27m3.935-5.128h0a.191.191,0,1,1-.07-.261.19.19,0,0,1,.07.261m2.473-5.973h0a.191.191,0,1,1-.134-.234.19.19,0,0,1,.134.234m.843-6.41h0a.191.191,0,1,1-.191-.191.191.191,0,0,1,.191.191m-.844-6.409h0a.191.191,0,1,1-.234-.135.191.191,0,0,1,.234.135m-2.475-5.972h0a.191.191,0,1,1-.26-.07.19.19,0,0,1,.26.07m-3.936-5.128h0a.191.191,0,1,1-.27,0,.191.191,0,0,1,.27,0M44.427,10.6h0a.191.191,0,1,1-.261.07.191.191,0,0,1,.261-.07M38.454,8.127h0a.191.191,0,1,1-.234.134.191.191,0,0,1,.234-.134" transform="translate(-2.048 -2.048)"/>
        <path id="Path_2206" data-name="Path 2206" class="cls-7" d="M28.177,55.6c.666-.474,1.078-1.061,1.942-1.061,1.45,0,1.619,1.653,3.873,1.653,2.219,0,2.446-1.653,3.86-1.653,1.458,0,1.616,1.653,3.873,1.653s2.421-1.654,3.87-1.654c.794,0,1.206.513,1.8.967a13.964,13.964,0,0,0,1.155-1.227c-.763-.466-1.279-1.394-2.957-1.394-2.24,0-2.426,1.654-3.873,1.654s-1.63-1.654-3.873-1.654c-2.219,0-2.446,1.654-3.86,1.654-1.458,0-1.617-1.654-3.873-1.654-1.8,0-2.268,1.055-3.124,1.479" transform="translate(-7.589 -14.869)"/>
        <path id="Path_2207" data-name="Path 2207" class="cls-7" d="M27.427,39.439h.825V32h3.311v7.442h3.312V32h3.311v7.442H41.5V32h3.311v7.442h.829a2.484,2.484,0,0,1,2.512,2.456v2.689a14.081,14.081,0,1,0-23.209.33V41.921a2.484,2.484,0,0,1,2.487-2.482M41.519,29.51c0-1.6,1.658-1.188,1.658-3.3.622,0,1.657,1.525,1.657,2.894s-.741,2.067-1.657,2.067h0a1.651,1.651,0,0,1-1.656-1.645V29.51m-6.632,0c0-1.6,1.658-1.188,1.658-3.3.622,0,1.658,1.525,1.658,2.894s-.738,2.067-1.658,2.067a1.651,1.651,0,0,1-1.658-1.644V29.51m-6.635,0c0-1.6,1.662-1.185,1.662-3.3.622,0,1.658,1.525,1.658,2.894s-.738,2.067-1.658,2.067a1.651,1.651,0,0,1-1.662-1.64V29.51" transform="translate(-6.282 -6.378)"/>
        <path id="Path_2208" data-name="Path 2208" class="cls-6" d="M50.673,32.544h0c.917,0,1.658-.7,1.658-2.067s-1.035-2.895-1.658-2.895c0,2.115-1.657,1.7-1.657,3.3V30.9a1.651,1.651,0,0,0,1.657,1.645" transform="translate(-13.78 -7.754)"/>
        <path id="Path_2209" data-name="Path 2209" class="cls-6" d="M49.164,45.559v-.027a2.484,2.484,0,0,0-2.512-2.456h-.829V35.634H42.512v7.442H39.2V35.634H35.889v7.442H32.577V35.634H29.266v7.444h-.825a2.484,2.484,0,0,0-2.487,2.482v2.992q.355.5.747.966c.857-.425,1.322-1.479,3.124-1.479,2.257,0,2.415,1.653,3.873,1.653,1.415,0,1.641-1.653,3.86-1.653,2.243,0,2.426,1.653,3.873,1.653s1.633-1.653,3.873-1.653c1.679,0,2.194.928,2.957,1.393a14.051,14.051,0,0,0,.9-1.209Z" transform="translate(-7.297 -10.018)"/>
        <path id="Path_2210" data-name="Path 2210" class="cls-6" d="M42.187,56.844c-2.257,0-2.415-1.653-3.873-1.653-1.414,0-1.64,1.653-3.86,1.653-2.254,0-2.423-1.653-3.873-1.653-.863,0-1.275.587-1.942,1.061a14.1,14.1,0,0,0,19.221-.095c-.6-.454-1.009-.967-1.8-.967-1.45,0-1.615,1.654-3.872,1.654" transform="translate(-8.051 -15.516)"/>
        <path id="Path_2211" data-name="Path 2211" class="cls-6" d="M41.449,32.544c.92,0,1.658-.7,1.658-2.067s-1.036-2.895-1.658-2.895c0,2.115-1.658,1.7-1.658,3.3V30.9a1.652,1.652,0,0,0,1.658,1.645" transform="translate(-11.187 -7.754)"/>
        <path id="Path_2212" data-name="Path 2212" class="cls-6" d="M32.223,32.544c.92,0,1.658-.7,1.658-2.067s-1.036-2.895-1.658-2.895c0,2.118-1.662,1.705-1.662,3.3V30.9a1.651,1.651,0,0,0,1.662,1.64" transform="translate(-8.592 -7.754)"/>
        <path id="Path_2213" data-name="Path 2213" class="cls-8" d="M68.477,40.963a2.28,2.28,0,0,0-.2.945c-.017.633.339,1.377-.108,1.919-.781.949-2.514.8-2.741,2.252-.114.729.106,1.714,1.019,1.758s1.175-.988,1.13-1.7c-.074-1.159-1.423-1.5-2.349-1.068a2.234,2.234,0,0,0-1.179,2.205c.013.924.554,2.1,1.635,2.111.886.007,1.208-1.041.935-1.76-.5-1.3-2.64-.765-3,.366-.257.8-.082,2.039.99,1.983.1-.005.095-.723.037-.72-.458.024-.991-.242-.9-.756.087-.5.654-.755,1.1-.84a1.8,1.8,0,0,1,1.387.226c.644.5-.239.845-.714.758a1.5,1.5,0,0,1-.928-2.416,1.921,1.921,0,0,1,2.379-.365c1.093.724-.34,1.657-1.106.994-1-.864,1.038-1.525,1.61-1.832a1.8,1.8,0,0,0,1.065-1.362,3.552,3.552,0,0,0,.023-.731c-.025-.378-.254-.92-.089-1.27.087-.185-.028-.623.007-.7" transform="translate(-17.855 -11.516)"/>
        <path id="Path_2214" data-name="Path 2214" class="cls-8" d="M12.96,36.911a.511.511,0,0,1,.6.06q.143-.115.055.216l-.026.134a1.169,1.169,0,0,1-.179.372c-.325.473-.889.69-1.259,1.117A1.208,1.208,0,0,0,12.4,40.59c.465.253,1.018-.022,1.509.111.273.074.4.108.281.38-.1.239-.231.4-.175.674.133.658.86,1.357,1.435.649.047-.058-.242-.375-.213-.411-.275.339-1.2.475-.988-.193.067-.216.247-.371.219-.615a1.029,1.029,0,0,0-.134-.33.938.938,0,0,0-.581-.551c-.5-.161-1.1.148-1.566-.127a.1.1,0,0,0-.116-.022.767.767,0,0,1-.009-.3,1.091,1.091,0,0,1,.114-.366,1.872,1.872,0,0,1,.549-.6c.425-.332.983-.651,1.089-1.229.1-.523-.466-1.483-1.072-1.165a2.25,2.25,0,0,0,.213.411" transform="translate(-3.338 -10.243)"/>
        <path id="Path_2215" data-name="Path 2215" class="cls-9" d="M18.732,54.32c.07.024-.682.645-.73.726a.7.7,0,0,0-.029.587,1.521,1.521,0,0,0,.249.471c.228.285.714.185.889.457l-.136-.313a.216.216,0,0,1-.181.262c-.014,0,.119.428.213.411.329-.059.167-.413.056-.6a.637.637,0,0,0-.374-.317c-.275-.1-.687-.077-.489-.5.18-.389.838-.466.768-.979a.788.788,0,0,0-.424-.609s.076.369.187.406" transform="translate(-5.039 -15.157)"/>
        <path id="Path_2216" data-name="Path 2216" class="cls-8" d="M58.255,30.783l.238.17.522-.656-.38-.3Z" transform="translate(-16.378 -8.432)"/>
        <path id="Path_2217" data-name="Path 2217" class="cls-8" d="M58.458,31.011l-.334-.185.555-.634.41.179Z" transform="translate(-16.341 -8.488)"/>
        <path id="Path_2218" data-name="Path 2218" class="cls-8" d="M16.482,28.562l.236-.674-1.065-.248-.234.587Z" transform="translate(-4.334 -7.77)"/>
        <path id="Path_2219" data-name="Path 2219" class="cls-8" d="M16.577,28.08l-.111.365-1.016-.191.224-.461Z" transform="translate(-4.344 -7.814)"/>
        <path id="Path_2220" data-name="Path 2220" class="cls-8" d="M26.449,24.528l-.375-.356-.442.906.39.293Z" transform="translate(-7.206 -6.795)"/>
        <path id="Path_2221" data-name="Path 2221" class="cls-9" d="M26.028,24.182l.58.372-.617.855-.536-.338Z" transform="translate(-7.156 -6.798)"/>
        <path id="Path_2222" data-name="Path 2222" class="cls-8" d="M62.22,23.354l-.43-.032.035.781h.387Z" transform="translate(-17.371 -6.556)"/>
        <path id="Path_2223" data-name="Path 2223" class="cls-8" d="M61.812,23.333l.426.018v.766l-.356-.037Z" transform="translate(-17.378 -6.56)"/>
        <path id="Path_2224" data-name="Path 2224" class="cls-8" d="M25.058,20.009l.038-.426-.714-.029.01.325Z" transform="translate(-6.855 -5.497)"/>
        <path id="Path_2225" data-name="Path 2225" class="cls-9" d="M25.042,19.712l-.007.273-.646-.064.031-.234Z" transform="translate(-6.857 -5.535)"/>
        <path id="Path_2226" data-name="Path 2226" class="cls-8" d="M68.968,55.052l.265-.252-.605-.526-.18.334Z" transform="translate(-19.243 -15.258)"/>
        <path id="Path_2227" data-name="Path 2227" class="cls-8" d="M69.2,54.856l-.3.323-.64-.442.28-.227Z" transform="translate(-19.192 -15.325)"/>
        <path id="Path_2228" data-name="Path 2228" class="cls-8" d="M12.787,49.763l-.2-.421.658-.187.158.244Z" transform="translate(-3.537 -13.819)"/>
        <path id="Path_2229" data-name="Path 2229" class="cls-9" d="M60.531,27.538a2.944,2.944,0,0,1,.643,2.841c-.131.414-.486.832-.426,1.29.056.438.477.671.863.78.754.214,2-.025,2.2,1,.116.579-.189,1.162-.184,1.742a1.8,1.8,0,0,0,.557,1.267c.055.054.392-.262.35-.3A1.786,1.786,0,0,1,64,34.625a5.5,5.5,0,0,0,.169-1.407c-.152-1.055-1.348-.873-2.11-1.047-.428-.1-.906-.331-.956-.815s.362-.968.474-1.448a3,3,0,0,0-.7-2.674c-.047-.051-.394.254-.35.3" transform="translate(-17.016 -7.655)"/>
        <path id="Path_2230" data-name="Path 2230" class="cls-9" d="M16.677,34.828a.5.5,0,0,0,.5-.585,1.9,1.9,0,0,0-.313-.619,1.668,1.668,0,0,0-.46-.567c-.042-.025,0,.045,0,.058a2.046,2.046,0,0,0,.149.266c.068.111.139.222.214.329a.659.659,0,0,0,.144.186c.035.022.065.048.1.072q-.512-.994-.385-.584c0,.013.005.027.008.04a.444.444,0,0,1-.051.283.514.514,0,0,1-.447.262c-.014,0,.071.164.058.14.056.1.119.208.184.309s.13.2.2.3c.018.024.068.113.1.112" transform="translate(-4.535 -9.292)"/>
        <path id="Path_2231" data-name="Path 2231" class="cls-3" d="M60,30A30,30,0,1,1,30,0,30,30,0,0,1,60,30" transform="translate(0 0)"/>
        <path id="Path_2232" data-name="Path 2232" class="cls-4" d="M30.46,1.637A28.823,28.823,0,1,0,59.283,30.461,28.823,28.823,0,0,0,30.46,1.637" transform="translate(-0.46 -0.46)"/>
        <path id="Path_2233" data-name="Path 2233" class="cls-10" d="M57.611,31.533A26.078,26.078,0,1,1,31.533,5.455,26.078,26.078,0,0,1,57.611,31.533" transform="translate(-1.534 -1.533)"/>
        <path id="Path_2234" data-name="Path 2234" class="cls-6" d="M31.037,58.385A27.347,27.347,0,1,1,58.384,31.038,27.378,27.378,0,0,1,31.037,58.385m0-52.156A24.809,24.809,0,1,0,55.846,31.038,24.838,24.838,0,0,0,31.037,6.229" transform="translate(-1.037 -1.037)"/>
        <path id="Path_2235" data-name="Path 2235" class="cls-4" d="M32.045,7.284a.191.191,0,1,1-.19.19.19.19,0,0,1,.19-.19m1.582.05h0a.191.191,0,1,1-.2.178.191.191,0,0,1,.2-.178m-6.45.433h0a.191.191,0,1,1-.15.224.191.191,0,0,1,.15-.224M21.059,9.855h0a.191.191,0,1,1-.087.256.191.191,0,0,1,.087-.256m-5.37,3.6h0a.191.191,0,1,1-.017.269.191.191,0,0,1,.017-.269m-4.254,4.867h0a.191.191,0,1,1,.053.265.191.191,0,0,1-.053-.265m-2.85,5.8h0a.191.191,0,1,1,.119.242.191.191,0,0,1-.119-.242M7.334,30.468h0a.191.191,0,1,1,.178.2.19.19,0,0,1-.178-.2m.433,6.45h0a.191.191,0,1,1,.225.15.191.191,0,0,1-.225-.15m2.088,6.118h0a.191.191,0,1,1,.256.086.191.191,0,0,1-.256-.086m3.6,5.369h0a.191.191,0,1,1,.27.017.192.192,0,0,1-.27-.017m4.867,4.254h0a.191.191,0,1,1,.265-.052.19.19,0,0,1-.265.052m5.8,2.85h0a.191.191,0,1,1,.242-.119.19.19,0,0,1-.242.119m6.343,1.252h0a.191.191,0,1,1,.2-.178.192.192,0,0,1-.2.178m6.45-.433h0a.191.191,0,1,1,.15-.225.192.192,0,0,1-.15.225m6.118-2.088h0a.19.19,0,1,1,.087-.255.19.19,0,0,1-.087.255m5.369-3.6h0a.191.191,0,1,1,.018-.27.19.19,0,0,1-.018.27m4.255-4.867h0a.191.191,0,1,1-.053-.265.191.191,0,0,1,.053.265m2.85-5.8h0a.191.191,0,1,1-.119-.242.191.191,0,0,1,.119.242m1.251-6.342h0a.191.191,0,1,1-.178-.2.19.19,0,0,1,.178.2m-.433-6.45h0a.191.191,0,1,1-.224-.15.191.191,0,0,1,.224.15m-2.088-6.118h0a.191.191,0,1,1-.256-.086.191.191,0,0,1,.256.086m-3.6-5.369h0a.191.191,0,1,1-.27-.017.191.191,0,0,1,.27.017m-4.867-4.254h0a.191.191,0,1,1-.265.052.191.191,0,0,1,.265-.052m-5.8-2.85h0a.191.191,0,1,1-.242.12.19.19,0,0,1,.242-.12M30.377,7.34h0a.191.191,0,1,1-.178.2.191.191,0,0,1,.178-.2M24.039,8.615h0a.191.191,0,1,1-.119.242.191.191,0,0,1,.119-.242m-5.792,2.871h0a.191.191,0,1,1-.052.265.192.192,0,0,1,.052-.265M13.4,15.759h0a.191.191,0,1,1,.019.269.191.191,0,0,1-.019-.269M9.814,21.141h0A.191.191,0,1,1,9.9,21.4a.191.191,0,0,1-.088-.255M7.75,27.266h0a.191.191,0,1,1,.15.224.19.19,0,0,1-.15-.224m-.41,6.452h0a.191.191,0,1,1,.2.178.191.191,0,0,1-.2-.178m1.274,6.338h0a.191.191,0,1,1,.242.119.192.192,0,0,1-.242-.119m2.871,5.792h0a.191.191,0,1,1,.265.052.191.191,0,0,1-.265-.052M15.758,50.7h0a.191.191,0,1,1,.27-.018.191.191,0,0,1-.27.018m5.383,3.58h0a.19.19,0,1,1,.255-.087.191.191,0,0,1-.255.087m6.125,2.065h0a.191.191,0,1,1,.224-.15.191.191,0,0,1-.224.15m6.452.41h0a.191.191,0,1,1,.178-.2.191.191,0,0,1-.178.2m6.338-1.274h0a.191.191,0,1,1,.119-.242.191.191,0,0,1-.119.242m5.792-2.872h0a.19.19,0,1,1,.052-.265.191.191,0,0,1-.052.265M50.7,48.337h0a.191.191,0,1,1-.018-.269.191.191,0,0,1,.018.269m3.581-5.382h0a.191.191,0,1,1-.087-.256.191.191,0,0,1,.087.256m2.065-6.126h0a.191.191,0,1,1-.15-.224.19.19,0,0,1,.15.224m.41-6.451h0a.191.191,0,1,1-.2-.178.191.191,0,0,1,.2.178M55.48,24.039h0a.191.191,0,1,1-.242-.119.191.191,0,0,1,.242.119m-2.871-5.792h0a.191.191,0,1,1-.265-.052.19.19,0,0,1,.265.052M48.337,13.4h0a.191.191,0,1,1-.251.287.191.191,0,0,1,.251-.287M42.954,9.815h0A.191.191,0,1,1,42.7,9.9a.191.191,0,0,1,.255-.087M36.829,7.75h0a.191.191,0,1,1-.224.15.191.191,0,0,1,.224-.15M28.752,7.5h0a.191.191,0,1,1-.164.215.191.191,0,0,1,.164-.215m-6.24,1.689h0a.191.191,0,1,1-.1.249.191.191,0,0,1,.1-.249m-5.59,3.247h0a.191.191,0,1,1-.035.267.191.191,0,0,1,.035-.267m-4.56,4.583h0a.191.191,0,1,1,.036.267.191.191,0,0,1-.036-.267M9.144,22.63h0a.191.191,0,1,1,.1.249.191.191,0,0,1-.1-.249M7.487,28.879h0a.191.191,0,1,1,.165.214.191.191,0,0,1-.165-.214M7.5,35.343h0a.191.191,0,1,1,.214.163.192.192,0,0,1-.214-.163m1.689,6.24h0a.191.191,0,1,1,.249.1.191.191,0,0,1-.249-.1m3.246,5.59h0a.191.191,0,1,1,.267.035.191.191,0,0,1-.267-.035m4.583,4.56h0a.191.191,0,1,1,.267-.036.191.191,0,0,1-.267.036M22.63,54.95h0a.191.191,0,1,1,.249-.1.19.19,0,0,1-.249.1m6.248,1.657h0a.191.191,0,1,1,.214-.165.19.19,0,0,1-.214.165m6.465-.016h0a.191.191,0,1,1,.164-.215.191.191,0,0,1-.164.215m6.24-1.69h0a.19.19,0,1,1,.1-.249.189.189,0,0,1-.1.249m5.591-3.246h0a.191.191,0,1,1,.035-.267.19.19,0,0,1-.035.267m4.559-4.583h0A.191.191,0,1,1,51.7,46.8a.192.192,0,0,1,.035.267m3.218-5.607h0a.191.191,0,1,1-.1-.249.19.19,0,0,1,.1.249m1.657-6.248h0A.191.191,0,1,1,56.443,35a.191.191,0,0,1,.165.213m-.017-6.465h0a.191.191,0,1,1-.214-.164.19.19,0,0,1,.214.164M54.9,22.512h0a.191.191,0,1,1-.249-.1.191.191,0,0,1,.249.1m-3.246-5.591h0a.191.191,0,1,1-.267-.035.191.191,0,0,1,.267.035m-4.583-4.559h0a.191.191,0,1,1-.268.036.191.191,0,0,1,.268-.036M41.465,9.145h0a.191.191,0,1,1-.249.1.19.19,0,0,1,.249-.1M35.216,7.487h0A.191.191,0,1,1,35,7.653a.191.191,0,0,1,.214-.165m-9.58.641h0a.191.191,0,1,1-.136.234.19.19,0,0,1,.136-.234M19.663,10.6h0a.191.191,0,1,1-.07.261.191.191,0,0,1,.07-.261m-5.128,3.936h0a.191.191,0,1,1,0,.27.191.191,0,0,1,0-.27M10.6,19.668h0a.191.191,0,1,1,.07.261.191.191,0,0,1-.07-.261M8.127,25.641h0a.191.191,0,1,1,.135.234.191.191,0,0,1-.135-.234M7.284,32.05h0a.191.191,0,1,1,.19.191.191.191,0,0,1-.19-.191m.844,6.409h0a.191.191,0,1,1,.234.135.191.191,0,0,1-.234-.135M10.6,44.432h0a.191.191,0,1,1,.26.07.191.191,0,0,1-.26-.07m3.936,5.128h0a.191.191,0,1,1,.27,0,.191.191,0,0,1-.27,0m5.129,3.934h0a.191.191,0,1,1,.261-.069.19.19,0,0,1-.261.069m5.973,2.474h0a.191.191,0,1,1,.234-.134.191.191,0,0,1-.234.134m6.409.843h0a.191.191,0,1,1,.19-.191.192.192,0,0,1-.19.191m6.409-.845h0a.191.191,0,1,1,.135-.234.19.19,0,0,1-.135.234m5.972-2.475h0a.191.191,0,0,1-.19-.33.191.191,0,1,1,.19.33m5.128-3.936h0a.191.191,0,1,1,0-.27.19.19,0,0,1,0,.27m3.935-5.128h0a.191.191,0,1,1-.07-.261.19.19,0,0,1,.07.261m2.473-5.973h0a.191.191,0,1,1-.134-.234.19.19,0,0,1,.134.234m.843-6.41h0a.191.191,0,1,1-.191-.191.191.191,0,0,1,.191.191m-.844-6.409h0a.191.191,0,1,1-.234-.135.191.191,0,0,1,.234.135m-2.475-5.972h0a.191.191,0,1,1-.26-.07.19.19,0,0,1,.26.07m-3.936-5.128h0a.191.191,0,1,1-.27,0,.191.191,0,0,1,.27,0M44.427,10.6h0a.191.191,0,1,1-.261.07.191.191,0,0,1,.261-.07M38.454,8.127h0a.191.191,0,1,1-.234.134.191.191,0,0,1,.234-.134" transform="translate(-2.048 -2.048)"/>
        <path id="Path_2236" data-name="Path 2236" class="cls-11" d="M28.177,55.6c.666-.474,1.078-1.061,1.942-1.061,1.45,0,1.619,1.653,3.873,1.653,2.219,0,2.446-1.653,3.86-1.653,1.458,0,1.616,1.653,3.873,1.653s2.421-1.654,3.87-1.654c.794,0,1.206.513,1.8.967a13.964,13.964,0,0,0,1.155-1.227c-.763-.466-1.279-1.394-2.957-1.394-2.24,0-2.426,1.654-3.873,1.654s-1.63-1.654-3.873-1.654c-2.219,0-2.446,1.654-3.86,1.654-1.458,0-1.617-1.654-3.873-1.654-1.8,0-2.268,1.055-3.124,1.479" transform="translate(-7.589 -14.869)"/>
        <path id="Path_2237" data-name="Path 2237" class="cls-11" d="M27.427,39.439h.825V32h3.311v7.442h3.312V32h3.311v7.442H41.5V32h3.311v7.442h.829a2.484,2.484,0,0,1,2.512,2.456v2.689a14.081,14.081,0,1,0-23.209.33V41.921a2.484,2.484,0,0,1,2.487-2.482M41.519,29.51c0-1.6,1.658-1.188,1.658-3.3.622,0,1.657,1.525,1.657,2.894s-.741,2.067-1.657,2.067h0a1.651,1.651,0,0,1-1.656-1.645V29.51m-6.632,0c0-1.6,1.658-1.188,1.658-3.3.622,0,1.658,1.525,1.658,2.894s-.738,2.067-1.658,2.067a1.651,1.651,0,0,1-1.658-1.644V29.51m-6.635,0c0-1.6,1.662-1.185,1.662-3.3.622,0,1.658,1.525,1.658,2.894s-.738,2.067-1.658,2.067a1.651,1.651,0,0,1-1.662-1.64V29.51" transform="translate(-6.282 -6.378)"/>
        <path id="Path_2238" data-name="Path 2238" class="cls-6" d="M50.673,32.544h0c.917,0,1.658-.7,1.658-2.067s-1.035-2.895-1.658-2.895c0,2.115-1.657,1.7-1.657,3.3V30.9a1.651,1.651,0,0,0,1.657,1.645" transform="translate(-13.78 -7.754)"/>
        <path id="Path_2239" data-name="Path 2239" class="cls-6" d="M49.164,45.559v-.027a2.484,2.484,0,0,0-2.512-2.456h-.829V35.634H42.512v7.442H39.2V35.634H35.889v7.442H32.577V35.634H29.266v7.444h-.825a2.484,2.484,0,0,0-2.487,2.482v2.992q.355.5.747.966c.857-.425,1.322-1.479,3.124-1.479,2.257,0,2.415,1.653,3.873,1.653,1.415,0,1.641-1.653,3.86-1.653,2.243,0,2.426,1.653,3.873,1.653s1.633-1.653,3.873-1.653c1.679,0,2.194.928,2.957,1.393a14.051,14.051,0,0,0,.9-1.209Z" transform="translate(-7.297 -10.018)"/>
        <path id="Path_2240" data-name="Path 2240" class="cls-6" d="M42.187,56.844c-2.257,0-2.415-1.653-3.873-1.653-1.414,0-1.64,1.653-3.86,1.653-2.254,0-2.423-1.653-3.873-1.653-.863,0-1.275.587-1.942,1.061a14.1,14.1,0,0,0,19.221-.095c-.6-.454-1.009-.967-1.8-.967-1.45,0-1.615,1.654-3.872,1.654" transform="translate(-8.051 -15.516)"/>
        <path id="Path_2241" data-name="Path 2241" class="cls-6" d="M41.449,32.544c.92,0,1.658-.7,1.658-2.067s-1.036-2.895-1.658-2.895c0,2.115-1.658,1.7-1.658,3.3V30.9a1.652,1.652,0,0,0,1.658,1.645" transform="translate(-11.187 -7.754)"/>
        <path id="Path_2242" data-name="Path 2242" class="cls-6" d="M32.223,32.544c.92,0,1.658-.7,1.658-2.067s-1.036-2.895-1.658-2.895c0,2.118-1.662,1.705-1.662,3.3V30.9a1.651,1.651,0,0,0,1.662,1.64" transform="translate(-8.592 -7.754)"/>
        <path id="Path_2243" data-name="Path 2243" class="cls-6" d="M68.477,40.963a2.28,2.28,0,0,0-.2.945c-.017.633.339,1.377-.108,1.919-.781.949-2.514.8-2.741,2.252-.114.729.106,1.714,1.019,1.758s1.175-.988,1.13-1.7c-.074-1.159-1.423-1.5-2.349-1.068a2.234,2.234,0,0,0-1.179,2.205c.013.924.554,2.1,1.635,2.111.886.007,1.208-1.041.935-1.76-.5-1.3-2.64-.765-3,.366-.257.8-.082,2.039.99,1.983.1-.005.095-.723.037-.72-.458.024-.991-.242-.9-.756.087-.5.654-.755,1.1-.84a1.8,1.8,0,0,1,1.387.226c.644.5-.239.845-.714.758a1.5,1.5,0,0,1-.928-2.416,1.921,1.921,0,0,1,2.379-.365c1.093.724-.34,1.657-1.106.994-1-.864,1.038-1.525,1.61-1.832a1.8,1.8,0,0,0,1.065-1.362,3.552,3.552,0,0,0,.023-.731c-.025-.378-.254-.92-.089-1.27.087-.185-.028-.623.007-.7" transform="translate(-17.855 -11.516)"/>
        <path id="Path_2244" data-name="Path 2244" class="cls-6" d="M12.96,36.911a.511.511,0,0,1,.6.06q.143-.115.055.216l-.026.134a1.169,1.169,0,0,1-.179.372c-.325.473-.889.69-1.259,1.117A1.208,1.208,0,0,0,12.4,40.59c.465.253,1.018-.022,1.509.111.273.074.4.108.281.38-.1.239-.231.4-.175.674.133.658.86,1.357,1.435.649.047-.058-.242-.375-.213-.411-.275.339-1.2.475-.988-.193.067-.216.247-.371.219-.615a1.029,1.029,0,0,0-.134-.33.938.938,0,0,0-.581-.551c-.5-.161-1.1.148-1.566-.127a.1.1,0,0,0-.116-.022.767.767,0,0,1-.009-.3,1.091,1.091,0,0,1,.114-.366,1.872,1.872,0,0,1,.549-.6c.425-.332.983-.651,1.089-1.229.1-.523-.466-1.483-1.072-1.165a2.25,2.25,0,0,0,.213.411" transform="translate(-3.338 -10.243)"/>
        <path id="Path_2245" data-name="Path 2245" class="cls-6" d="M18.732,54.32c.07.024-.682.645-.73.726a.7.7,0,0,0-.029.587,1.521,1.521,0,0,0,.249.471c.228.285.714.185.889.457l-.136-.313a.216.216,0,0,1-.181.262c-.014,0,.119.428.213.411.329-.059.167-.413.056-.6a.637.637,0,0,0-.374-.317c-.275-.1-.687-.077-.489-.5.18-.389.838-.466.768-.979a.788.788,0,0,0-.424-.609s.076.369.187.406" transform="translate(-5.039 -15.157)"/>
        <path id="Path_2246" data-name="Path 2246" class="cls-8" d="M58.255,30.783l.238.17.522-.656-.38-.3Z" transform="translate(-16.378 -8.432)"/>
        <path id="Path_2247" data-name="Path 2247" class="cls-8" d="M58.458,31.011l-.334-.185.555-.634.41.179Z" transform="translate(-16.341 -8.488)"/>
        <path id="Path_2248" data-name="Path 2248" class="cls-8" d="M16.482,28.562l.236-.674-1.065-.248-.234.587Z" transform="translate(-4.334 -7.77)"/>
        <path id="Path_2249" data-name="Path 2249" class="cls-8" d="M16.577,28.08l-.111.365-1.016-.191.224-.461Z" transform="translate(-4.344 -7.814)"/>
        <path id="Path_2250" data-name="Path 2250" class="cls-8" d="M26.449,24.528l-.375-.356-.442.906.39.293Z" transform="translate(-7.206 -6.795)"/>
        <path id="Path_2251" data-name="Path 2251" class="cls-9" d="M26.028,24.182l.58.372-.617.855-.536-.338Z" transform="translate(-7.156 -6.798)"/>
        <path id="Path_2252" data-name="Path 2252" class="cls-8" d="M62.22,23.354l-.43-.032.035.781h.387Z" transform="translate(-17.371 -6.556)"/>
        <path id="Path_2253" data-name="Path 2253" class="cls-8" d="M61.812,23.333l.426.018v.766l-.356-.037Z" transform="translate(-17.378 -6.56)"/>
        <path id="Path_2254" data-name="Path 2254" class="cls-8" d="M25.058,20.009l.038-.426-.714-.029.01.325Z" transform="translate(-6.855 -5.497)"/>
        <path id="Path_2255" data-name="Path 2255" class="cls-9" d="M25.042,19.712l-.007.273-.646-.064.031-.234Z" transform="translate(-6.857 -5.535)"/>
        <path id="Path_2256" data-name="Path 2256" class="cls-8" d="M68.968,55.052l.265-.252-.605-.526-.18.334Z" transform="translate(-19.243 -15.258)"/>
        <path id="Path_2257" data-name="Path 2257" class="cls-8" d="M69.2,54.856l-.3.323-.64-.442.28-.227Z" transform="translate(-19.192 -15.325)"/>
        <path id="Path_2258" data-name="Path 2258" class="cls-8" d="M12.787,49.763l-.2-.421.658-.187.158.244Z" transform="translate(-3.537 -13.819)"/>
        <path id="Path_2259" data-name="Path 2259" class="cls-6" d="M60.531,27.538a2.944,2.944,0,0,1,.643,2.841c-.131.414-.486.832-.426,1.29.056.438.477.671.863.78.754.214,2-.025,2.2,1,.116.579-.189,1.162-.184,1.742a1.8,1.8,0,0,0,.557,1.267c.055.054.392-.262.35-.3A1.786,1.786,0,0,1,64,34.625a5.5,5.5,0,0,0,.169-1.407c-.152-1.055-1.348-.873-2.11-1.047-.428-.1-.906-.331-.956-.815s.362-.968.474-1.448a3,3,0,0,0-.7-2.674c-.047-.051-.394.254-.35.3" transform="translate(-17.016 -7.655)"/>
        <path id="Path_2260" data-name="Path 2260" class="cls-9" d="M16.677,34.828a.5.5,0,0,0,.5-.585,1.9,1.9,0,0,0-.313-.619,1.668,1.668,0,0,0-.46-.567c-.042-.025,0,.045,0,.058a2.046,2.046,0,0,0,.149.266c.068.111.139.222.214.329a.659.659,0,0,0,.144.186c.035.022.065.048.1.072q-.512-.994-.385-.584c0,.013.005.027.008.04a.444.444,0,0,1-.051.283.514.514,0,0,1-.447.262c-.014,0,.071.164.058.14.056.1.119.208.184.309s.13.2.2.3c.018.024.068.113.1.112" transform="translate(-4.535 -9.292)"/>
      </g>
    </g>
  </g>
</svg>
